<svg viewBox="0 0 256 256" xmlns="http://www.w3.org/2000/svg"><path d="M64.34 124H40a4 4 0 100 8h24.34a23.995 23.995 0 0047.321 0h104.34a4 4 0 000-8h-104.34a23.995 23.995 0 00-47.321 0zm39.66 4a16 16 0 11-16-16 16.018 16.018 0 0116 16zm64-96a24.034 24.034 0 00-23.66 20L40 51.999a4 4 0 100 8L144.34 60a23.995 23.995 0 0047.321 0l24.34-.001a4 4 0 000-8l-24.34.001a24.034 24.034 0 00-23.66-20zm16 24a16 16 0 11-16-16 16.018 16.018 0 0116 16zm-71.66 140H40a4 4 0 000 8h72.34a23.995 23.995 0 0047.321 0h56.34a4 4 0 000-8h-56.34a23.995 23.995 0 00-47.321 0zm39.66 4a16 16 0 11-16-16 16.018 16.018 0 0116 16z" fill="#666"/></svg>