<svg id="Flat" version="1.1" viewBox="0 0 256 256" xmlns="http://www.w3.org/2000/svg">
<path d="m64.34 124h-24.34a4 4 0 1 0 0 8h24.34a23.995 23.995 0 0 0 47.321 0h104.34a4 4 0 0 0 0-8h-104.34a23.995 23.995 0 0 0-47.321 0zm39.66 4a16 16 0 1 1-16-16 16.018 16.018 0 0 1 16 16zm64-96a24.034 24.034 0 0 0-23.66 20l-104.34-1e-3a4 4 0 1 0 0 8l104.34 1e-3a23.995 23.995 0 0 0 47.321 0l24.34-1e-3a4 4 0 0 0 0-8l-24.34 1e-3a24.034 24.034 0 0 0-23.66-20zm16 24a16 16 0 1 1-16-16 16.018 16.018 0 0 1 16 16zm-71.66 140-72.34 4.9e-4a4 4 0 0 0 0 8l72.34-4.9e-4a23.995 23.995 0 0 0 47.321 0l56.34 4.9e-4a4 4 0 0 0 0-8l-56.34-4.9e-4a23.995 23.995 0 0 0-47.321 0zm39.66 4a16 16 0 1 1-16-16 16.018 16.018 0 0 1 16 16z" fill="#666"/>
</svg>
